# xmcd
#
# Track frame offsets:
#	150
#	12972
#	43956
#	68400
#	99980
#	130278
#	174390
#	204083
#	218048
#	226989
#	263280
#
# Disc length: 4064 seconds
#
# Revision: 0
# Processed by: cddbd v1.5.2PL0 Copyright (c) Steve Scherf et al.
# Submitted via: audiograbber 1.83.01
#
DISCID=850fde0b
DTITLE=Grateful Dead - 93-09-09 Richfield Coliseum, Richfield OH
DYEAR=1900
DGENRE=
TTITLE0=Tuning
TTITLE1=Here Comes Sunshine
TTITLE2=Spoonful
TTITLE3=Stagger Lee
TTITLE4=Queen Jane Approximately
TTITLE5=Tennessee Jed
TTITLE6=Easy Answers
TTITLE7=Don't Ease Me In
TTITLE8=Tuning
TTITLE9=Victim Or The Crime
TTITLE10=Crazy Fingers
EXTD=
EXTT0=
EXTT1=
EXTT2=
EXTT3=
EXTT4=
EXTT5=
EXTT6=
EXTT7=
EXTT8=
EXTT9=
EXTT10=
PLAYORDER=
